<?xml version="1.0" encoding="UTF-8"?>
<svg id="Calque_1" data-name="Calque 1" xmlns="http://www.w3.org/2000/svg" viewBox="0 0 722.69 380.56">
  <defs>
    <style>
      .cls-1 {
        fill: #fff;
      }
    </style>
  </defs>
  <g>
    <path class="cls-1" d="M602.45,202.47c.37,1.49-.62,1.71-1.27,2.57-1.51,1.97-16.06,17.39-17.25,17.75-18.05,1.63-38.38-1.59-56.15.18-6.34.63-11.25,3.01-7.91,10.03l2.09.85c15.92,1.17,32.7-.84,48.52.17,14.67.93,27.86,4.96,25.9,22.57-2.38,21.36-22.4,25.27-40.4,26.17-23.69,1.17-48.37-.96-72.16-.05-.38-1.48.61-1.71,1.27-2.56,1.9-2.47,15.53-17.23,17.25-17.75,19.05-1.51,39.86,1.43,58.7-.19,7.93-.68,17.33-4.97,7.51-11.76-16.59-1.35-34.6,1.18-51.01-.2s-26.86-11.11-20.96-28.62c3.96-11.75,18.38-19.17,30.33-19.17h75.53Z"/>
    <path class="cls-1" d="M335.86,267.9c-18.71,18.33-76.65,21.99-96.55,5.4-15.53-12.95-11.49-43.72,2.08-56.78,18.85-18.14,80.99-22.06,99.06-2.55,12.29,13.26,7.77,41.82-4.59,53.93ZM277.1,222.36c-12.67,1.19-21.32,4.23-22.77,18.2-1.42,13.7,1.19,19.22,14.94,21.56,10.84,1.84,37.62,1.92,46.69-4.31,7.72-5.3,9.58-25.24,3.08-30.96-7.04-6.19-32.52-5.37-41.94-4.49Z"/>
    <path class="cls-1" d="M226.07,123.08c5.87-7.42,12.63-14.81,20.08-20.47,20.65,2.55,66.29-6.81,81.48,8.95,9.41,9.75,5.61,27.7-3.82,36.29-5.14,4.68-8.67,5.2-14.63,7.58-.87.35-1.47-.46-1.17,1.35l20.48,25.19h-32.86l-13.66-20.48c-.64-.88-1.56-.8-2.5-.91-3.59-.44-34.09-.62-35.53.42l-4.21,20.97h-24.75l7.62-40.61,74.36-.75c6.65-.4,13.86-8.75,8.52-14.58-.74-.81-4.85-2.96-5.57-2.96h-73.83Z"/>
    <polygon class="cls-1" points="442.85 102.6 423.47 122.91 373.41 123.2 372.15 124.51 371.16 132.47 433.46 132.47 416.64 150.22 368.27 150.35 366.04 161.5 433.46 161.5 414.26 181.98 337.87 181.98 351.53 102.6 442.85 102.6"/>
    <path class="cls-1" d="M61.34,181.98l8.53-49.51h24.75l-5.12,29.02h33.71c3.84,0,13.39-4.82,16.21-7.69,8.45-8.61,7.74-23.21-3.79-28.63-.95-.45-5.02-2.09-5.59-2.09h-58.46c5.43-5.07,11.92-15.31,17.87-19.26.96-.63,1.58-1.45,2.99-1.27,23.13,1.91,54.88-6.89,71.29,14.15,21.6,27.68-12.85,65.28-42.23,65.28h-60.17Z"/>
    <path class="cls-1" d="M583.71,54.73l-117.34,47.8-1.28-.43,32.42-40.55c-83.09,1.5-165.71,11.7-248.36,19.62l48.47-9.13c58.82-8.12,117.54-17.38,176.85-21.6l-20.48-20.47,129.72,24.76Z"/>
    <path class="cls-1" d="M230.33,202.47c.37,1.49-.62,1.71-1.27,2.57-4.47,5.84-12.42,11.75-17.25,17.75-18.4,2.36-51.5-6.33-63.78,11.33-7.66,11.01-3.36,23.56,9.72,26.88.92.23,5.98,1.24,6.44,1.24h55.9l-17.05,18.37c-1.36,1.48-2.75,1.91-4.69,2.14-10.6,1.24-36.21.72-46.75-1.09-40.36-6.94-42-53.51-8.04-71.63,5.78-3.08,18.55-7.54,24.9-7.54h61.88Z"/>
    <path class="cls-1" d="M553.8,102.6l-19.38,20.31c-14.23,1.35-30.18-1.21-44.2.18-14.45,1.43-29.63,16.76-19.92,31.01,2.2,3.23,9.4,7.4,13.08,7.4h60.17l-20.08,20.47c-14.6-.87-30.69,1.29-45.11-.09-40.9-3.92-48-50.37-14.45-70.58,4.87-2.93,18.42-8.7,23.73-8.7h66.15Z"/>
    <polygon class="cls-1" points="661.34 102.6 641.96 122.91 613.59 123.13 603.31 181.98 578.55 181.98 588.8 123.08 552.1 123.08 571.3 102.6 661.34 102.6"/>
    <polygon class="cls-1" points="390.79 202.47 380.71 260.3 381.83 262.22 442 262.22 421.94 282.71 353.66 282.71 352.55 280.79 367.32 202.47 390.79 202.47"/>
    <path class="cls-1" d="M238.87,94.9l148.08-20.47,84.91-5.97c-3.26,3.79-8.28,15.2-11.53,17.91-.52.44-.94.89-1.7.87l-90.51-.04"/>
    <polygon class="cls-1" points="486.38 202.47 471.87 282.71 447.97 282.71 461.63 202.47 486.38 202.47"/>
    <polygon class="cls-1" points="214.12 102.6 199.18 181.98 175.71 181.98 189.37 102.6 214.12 102.6"/>
    <path class="cls-1" d="M179.98,313.43l8.97-2.54c57.39-1.6,114.4-5.19,171.58-6.8,60.17-1.69,120.64-.55,180.94-.93l3.03.4c1.17,1.47,1.17,4.66,0,6.13-.79,1.03-1.02,1.08-2.19,1.24-14.92,1.97-37.5-.69-52.9-.93-61.68-.96-123.62-3.41-185.21-1.64-41.37,1.19-82.71,3.67-124.21,5.08Z"/>
  </g>
  <g>
    <path class="cls-1" d="M170.41,339.29c-1.47,4.57-5.31,7.59-11.48,7.59-6.96,0-10.15-4.09-10.15-9.79,0-7.15,4.88-13.74,13.21-13.74,5.96,0,9.45,3.3,9.72,7.93h-5.53c-.17-1.46-1.15-3.84-4.65-3.84-4.89,0-7.19,4.99-7.19,9.42,0,3.12,1.08,5.94,5.09,5.94,2.74,0,4.3-1.21,5.45-3.5h5.53Z"/>
    <path class="cls-1" d="M177.52,323.83h5.15l-1.8,8.58h10.06l1.8-8.58h5.18l-4.78,22.57h-5.18l2.06-9.76h-10.06l-2.07,9.76h-5.15l4.78-22.57Z"/>
    <path class="cls-1" d="M217.84,336.78h-12.01l-1.12,5.39h13.77l-1.49,4.23h-18.22l4.78-22.57h17.7l-.92,4.23h-12.66l-.92,4.49h12.01l-.94,4.23Z"/>
    <path class="cls-1" d="M221.32,342.46l15.79-14.4h-12.56l.92-4.23h19.23l-.91,4.25-15.4,14.09h13.72l-1.47,4.23h-20.14l.82-3.94Z"/>
    <path class="cls-1" d="M258.93,346.4l-4.05-22.57h5.15l1.65,10.69c.63,4.07.87,6.42.98,7.54h.06c.63-1.3,1.07-2.1,4.37-7.89l6.01-10.35h5.61l-13.78,22.57h-6Z"/>
    <path class="cls-1" d="M301.97,333.3c0,7.09-4.45,13.58-13.56,13.58-6.64,0-10.41-4.13-10.41-9.95,0-6.42,4.19-13.58,13.46-13.58,6.53,0,10.51,4.05,10.51,9.96ZM283.56,336.63c0,3.95,1.83,6.16,5.45,6.16,5.15,0,7.43-4.91,7.43-9.61,0-3.1-1.44-5.74-5.44-5.74-4.95,0-7.44,4.87-7.44,9.19Z"/>
    <path class="cls-1" d="M313.6,323.83l-2.77,12.97c-1.02,4.71,1.27,5.99,4.09,5.99,3.07,0,4.77-.94,5.82-5.95l2.77-13h5.13l-2.86,13.36c-1.57,7.31-4.58,9.69-11.54,9.69-5.21,0-10.28-2.08-8.52-10.34l2.71-12.7h5.16Z"/>
    <path class="cls-1" d="M333.81,339.5c.44,2.24,2.25,3.5,5.43,3.5,2.62,0,4.72-.73,4.72-2.87,0-1.57-1.05-2.37-4.76-3.33-5.81-1.51-7.98-3.08-7.98-6.25,0-4.11,3.45-7.19,9.6-7.19,7.52,0,9.46,3.93,9.62,6.67h-5.1c-.23-1.26-1.19-2.84-4.85-2.84-2.4,0-3.76,1.08-3.76,2.58s1.15,1.98,4.84,2.9c6.39,1.61,7.84,3.79,7.84,6.83,0,4.12-3.42,7.38-10.64,7.38-6.15,0-9.71-2.53-10.09-7.38h5.13Z"/>
    <path class="cls-1" d="M380.07,336.78h-12.01l-1.12,5.39h13.77l-1.49,4.23h-18.22l4.78-22.57h17.7l-.92,4.23h-12.66l-.92,4.49h12.01l-.94,4.23Z"/>
    <path class="cls-1" d="M392.68,328.06h-7.62l.92-4.23h20.36l-.92,4.23h-7.62l-3.83,18.34h-5.16l3.87-18.34Z"/>
    <path class="cls-1" d="M421.77,341.2l-3.18,5.19h-5.52l13.43-22.57h6.64l4.36,22.57h-5.31l-.95-5.19h-9.47ZM428.03,317.28l4.68,4.49h-4.94l-6.01-4.49h6.27ZM430.55,336.98c-.81-4.81-1.32-7.79-1.46-9.48h-.03c-.85,1.81-2.58,4.97-5.08,9.48h6.57Z"/>
    <path class="cls-1" d="M456.41,328.06h-7.62l.92-4.23h20.36l-.92,4.23h-7.62l-3.83,18.34h-5.16l3.87-18.34Z"/>
    <path class="cls-1" d="M487.76,336.78h-12.01l-1.12,5.39h13.77l-1.49,4.23h-18.22l4.78-22.57h17.7l-.92,4.23h-12.66l-.92,4.49h12.01l-.94,4.23Z"/>
    <path class="cls-1" d="M512.65,337.74c.82-3.89,1.84-7.94,2.5-10.44h-.03c-1.82,4.12-5.52,10.8-9.81,19.1h-4.62c-.49-6.85-1.17-14.83-1.37-19.09h-.03c-.38,2.63-1.13,7.02-1.93,10.87l-1.74,8.23h-4.73l4.78-22.57h7.53c.55,6.4,1.37,14.05,1.37,16.02h.03c1.22-2.6,5.04-9.55,8.48-16.02h7.62l-4.78,22.57h-5.07l1.82-8.66Z"/>
    <path class="cls-1" d="M526.45,323.83h10.18c4.6,0,7.84,2.47,7.84,6.81,0,5.36-4.03,7.92-10.14,7.92h-5.99l-1.57,7.84h-5.1l4.78-22.57ZM529.22,334.47h4.99c3.11,0,5.03-1,5.03-3.59,0-1.88-1.19-2.99-3.95-2.99h-4.67l-1.41,6.58Z"/>
    <path class="cls-1" d="M550.31,339.5c.44,2.24,2.25,3.5,5.43,3.5,2.62,0,4.72-.73,4.72-2.87,0-1.57-1.05-2.37-4.76-3.33-5.81-1.51-7.98-3.08-7.98-6.25,0-4.11,3.45-7.19,9.6-7.19,7.52,0,9.46,3.93,9.62,6.67h-5.1c-.23-1.26-1.19-2.84-4.85-2.84-2.4,0-3.76,1.08-3.76,2.58s1.15,1.98,4.84,2.9c6.39,1.61,7.84,3.79,7.84,6.83,0,4.12-3.42,7.38-10.64,7.38-6.15,0-9.71-2.53-10.09-7.38h5.13Z"/>
  </g>
</svg>