<?xml version="1.0" encoding="UTF-8"?>
<svg id="Calque_1" data-name="Calque 1" xmlns="http://www.w3.org/2000/svg" viewBox="0 0 841.89 214.19">
  <defs>
    <style>
      .cls-1 {
        fill: #c1121f;
      }

      .cls-2, .cls-3 {
        fill: #062655;
      }

      .cls-3 {
        font-family: Ethnocentric-Italic, Ethnocentric;
        font-size: 74.37px;
        font-style: italic;
      }
    </style>
  </defs>
  <path class="cls-2" d="M204.09,136.05c.36,3.7-.23,6.86-4.53,6.98-1.5.04-14.58-.93-16.02-.96-21.18-.45-30.59-1.64-51.68-2.32l-81.34-.52c.18-.97,2.1-3.19,2.93-3.19h150.64Z"/>
  <path class="cls-1" d="M766.68,71.28c.42-.65.67-1.07.5-1.89-1.63-2.38-43.12-2.38-48.81-2.16-8.5.33-17.08,1.62-25.58,2.15-.64.04-4,.21-4-.26,6.42-1.12,12.97-2.29,19.47-2.93,16.1-1.59,32.6-1.52,48.79-1.61.2-.89-.28-1.08-.81-1.59-2.09-2.03-5.48-3.83-7.19-6.14-.31-.42-1.08-.92-.25-1.35l46.65,11.75-42.38,18.66"/>
  <text class="cls-3" transform="translate(46.45 122.64)"><tspan x="0" y="0">DIRECT COLIS</tspan></text>
  <g>
    <path class="cls-2" d="M232.39,147.01c-1.14,3.31-3.81,5.46-8.27,5.46-4.94,0-7.29-2.96-7.29-7.2,0-5.07,3.43-9.99,9.5-9.99,4.26,0,6.78,2.34,7.02,5.73h-3.49c-.18-1.33-1.08-3.12-3.81-3.12-3.86,0-5.7,3.8-5.7,7.24,0,2.64,1.1,4.72,4.1,4.72,2.2,0,3.52-.95,4.47-2.85h3.49Z"/>
    <path class="cls-2" d="M237.74,135.63h3.26l-1.36,6.46h8.06l1.36-6.46h3.28l-3.49,16.49h-3.28l1.55-7.33h-8.06l-1.55,7.33h-3.26l3.49-16.49Z"/>
    <path class="cls-2" d="M266.81,144.86h-8.95l-.95,4.56h10.24l-.96,2.7h-13.05l3.49-16.49h12.63l-.58,2.7h-9.43l-.79,3.84h8.95l-.6,2.7Z"/>
    <path class="cls-2" d="M269.3,149.64l12.09-11.31h-9.61l.58-2.7h13.87l-.57,2.67-11.87,11.13h10.49l-.96,2.7h-14.55l.51-2.48Z"/>
    <path class="cls-2" d="M296.99,152.12l-3.11-16.49h3.25l1.39,8.13c.52,3.06.72,4.72.81,5.55h.05c.45-.9,1-1.83,3.17-5.57l4.85-8.1h3.56l-10.22,16.49h-3.75Z"/>
    <path class="cls-2" d="M327.79,142.59c0,5.14-3.17,9.88-9.75,9.88-4.78,0-7.52-3.04-7.52-7.3,0-4.76,3.11-9.88,9.7-9.88,4.68,0,7.56,2.97,7.56,7.31ZM314.04,144.96c0,3.03,1.47,4.89,4.39,4.89,3.99,0,5.87-3.62,5.87-7.32,0-2.63-1.33-4.64-4.38-4.64-3.77,0-5.87,3.57-5.87,7.07Z"/>
    <path class="cls-2" d="M335.95,135.63l-2.03,9.51c-.81,3.75,1.12,4.7,3.31,4.7,2.61,0,3.88-1.01,4.65-4.64l2.04-9.58h3.25l-2.08,9.76c-1.14,5.32-3.33,7.08-8.31,7.08-3.79,0-7.34-1.61-6.1-7.46l2-9.38h3.27Z"/>
    <path class="cls-2" d="M350.58,147.14c.35,1.81,1.79,2.83,4.29,2.83,2.04,0,3.83-.63,3.83-2.43,0-1.28-.82-1.96-3.73-2.7-4.17-1.07-5.7-2.18-5.7-4.48,0-2.86,2.44-5.08,6.81-5.08,5.37,0,6.76,2.81,6.87,4.8h-3.23c-.18-1.04-.94-2.33-3.87-2.33-1.95,0-3.1.88-3.1,2.15,0,1.2.87,1.62,3.71,2.31,4.63,1.15,5.7,2.74,5.7,4.94,0,3.02-2.48,5.32-7.57,5.32-4.35,0-6.93-1.78-7.25-5.33h3.26Z"/>
    <path class="cls-2" d="M384.48,144.86h-8.95l-.95,4.56h10.24l-.96,2.7h-13.05l3.49-16.49h12.63l-.58,2.7h-9.43l-.79,3.84h8.95l-.6,2.7Z"/>
    <path class="cls-2" d="M393.93,138.32h-5.71l.58-2.7h14.68l-.58,2.7h-5.73l-2.89,13.79h-3.26l2.91-13.79Z"/>
    <path class="cls-2" d="M414.53,147.91l-2.61,4.21h-3.51l9.97-16.49h4.16l3.31,16.49h-3.37l-.82-4.21h-7.12ZM418.87,130.84l3.48,3.31h-3.18l-4.33-3.31h4.03ZM421.21,145.21c-.7-3.82-1.11-6.03-1.22-7.22h-.02c-.61,1.27-2,3.74-4,7.22h5.25Z"/>
    <path class="cls-2" d="M439.93,138.32h-5.71l.58-2.7h14.68l-.58,2.7h-5.73l-2.88,13.79h-3.26l2.91-13.79Z"/>
    <path class="cls-2" d="M462.26,144.86h-8.95l-.95,4.56h10.24l-.96,2.7h-13.05l3.49-16.49h12.63l-.58,2.7h-9.43l-.79,3.84h8.95l-.6,2.7Z"/>
    <path class="cls-2" d="M480.69,145.52c.61-2.92,1.35-5.88,1.83-7.67h-.02c-1.24,2.78-4.49,8.32-7.72,14.26h-2.92c-.48-4.84-1.25-11.33-1.44-14.25h-.02c-.28,1.93-.87,5.22-1.45,8.03l-1.32,6.23h-3.01l3.49-16.49h4.75c.57,4.86,1.4,10.95,1.44,12.33h.02c.89-1.8,4.21-7.53,6.9-12.33h4.8l-3.49,16.49h-3.22l1.39-6.59Z"/>
    <path class="cls-2" d="M490.39,135.63h7.2c3.24,0,5.59,1.7,5.59,4.84,0,3.78-2.79,5.64-7.24,5.64h-4.61l-1.21,6.01h-3.23l3.49-16.49ZM491.91,143.49h3.98c2.34,0,3.99-.73,3.98-2.87,0-1.54-1.01-2.39-3.13-2.39h-3.7l-1.13,5.26Z"/>
    <path class="cls-2" d="M507,147.14c.34,1.81,1.79,2.83,4.29,2.83,2.04,0,3.83-.63,3.83-2.43,0-1.28-.82-1.96-3.73-2.7-4.17-1.07-5.7-2.18-5.7-4.48,0-2.86,2.44-5.08,6.81-5.08,5.37,0,6.76,2.81,6.87,4.8h-3.23c-.18-1.04-.94-2.33-3.87-2.33-1.95,0-3.11.88-3.11,2.15,0,1.2.87,1.62,3.71,2.31,4.63,1.15,5.7,2.74,5.7,4.94,0,3.02-2.48,5.32-7.58,5.32-4.34,0-6.93-1.78-7.25-5.33h3.26Z"/>
  </g>
</svg>